<svg width="24" height="24" viewBox="0 0 24 24" fill="none" xmlns="http://www.w3.org/2000/svg">
    <path d="M15.6861 23.5814L5.5698 13.4651C5.33724 13.2325 5.17445 13 5.08143 12.7674C4.98841 12.5349 4.94189 12.2791 4.94189 12C4.94189 11.7209 4.98841 11.4651 5.08143 11.2326C5.17445 11 5.33724 10.7674 5.5698 10.5349L15.6861 0.418605C15.8256 0.27907 15.9772 0.174884 16.141 0.106047C16.3047 0.0372096 16.4786 0.00186046 16.6628 0C17.0349 0 17.3605 0.128372 17.6396 0.385116C17.9186 0.64186 18.0582 0.978604 18.0582 1.39535V22.6046C18.0582 23.0232 17.9186 23.3609 17.6396 23.6177C17.3605 23.8744 17.0349 24.0018 16.6628 24C16.5698 24 16.2442 23.8604 15.6861 23.5814Z" fill="black"/>
</svg>
