<svg width="24" height="24" viewBox="0 0 24 24" fill="none" xmlns="http://www.w3.org/2000/svg">
    <path d="M7.41797 24C7.00341 24 6.64684 23.8643 6.34826 23.5928C6.04968 23.3165 5.90039 22.955 5.90039 22.5083V1.49537C5.90039 1.04627 6.05338 0.684763 6.35937 0.410858C6.66535 0.136953 7.02069 0 7.42537 0C7.52901 0 7.87942 0.160392 8.47658 0.481181L18.3853 10.3936C18.6148 10.6206 18.7912 10.8661 18.9146 11.1302C19.038 11.3942 19.0997 11.6841 19.0997 12C19.0997 12.3159 19.038 12.6058 18.9146 12.8698C18.7912 13.1339 18.6148 13.3806 18.3853 13.6101L8.47658 23.5188C8.34086 23.6545 8.1817 23.7693 7.9991 23.863C7.81896 23.9544 7.62525 24 7.41797 24Z" fill="white"/>
</svg>
