<svg width="57" height="58" viewBox="0 0 57 58" fill="none" xmlns="http://www.w3.org/2000/svg">
    <rect y="0.5" width="57" height="57" rx="28.5" fill="#E9E9E9"/>
    <path d="M27.5092 13.2344H29.4027V17.3935H27.5092V13.2344ZM20.6264 14.6343L22.2889 13.728L24.3624 17.5318L22.6999 18.4382L20.6264 14.6343ZM32.5492 17.533L34.6227 13.7292L36.2852 14.6356L34.2117 18.4394L32.5492 17.533ZM39.3257 41.7634L37.1183 36.088V28.5499C37.1183 23.7735 33.2324 19.8876 28.456 19.8876C23.6792 19.8876 19.7933 23.7735 19.7933 28.5499V36.088L17.5859 41.7634H24.8439V41.9387C24.8439 43.9301 26.4643 45.5505 28.456 45.5505C30.4473 45.5505 32.0677 43.9301 32.0677 41.9387V41.7634H39.3257ZM21.6869 28.5499C21.6869 24.8177 24.7234 21.7811 28.456 21.7811C32.1883 21.7811 35.2248 24.8177 35.2248 28.5499V35.319H21.6869V28.5499ZM21.3878 37.2125H35.5239L36.5574 39.8699H20.3543L21.3878 37.2125ZM30.1741 41.9388C30.1741 42.8862 29.4032 43.657 28.456 43.657C27.5084 43.657 26.7375 42.8863 26.7375 41.9387V41.7634H30.1739V41.9387L30.1741 41.9388Z" fill="black"/>
</svg>
