<svg width="38" height="38" viewBox="0 0 38 38" fill="none" xmlns="http://www.w3.org/2000/svg">
    <path d="M19 25.3334C21.6234 25.3334 23.75 23.2067 23.75 20.5834C23.75 17.96 21.6234 15.8334 19 15.8334C16.3766 15.8334 14.25 17.96 14.25 20.5834C14.25 23.2067 16.3766 25.3334 19 25.3334Z" stroke="white" stroke-width="3"/>
    <path d="M15.4822 33.25H22.5185C27.4601 33.25 29.9317 33.25 31.7066 32.0863C32.4726 31.5846 33.1323 30.9368 33.6477 30.1799C34.8337 28.4383 34.8337 26.011 34.8337 21.1597C34.8337 16.3083 34.8337 13.8811 33.6477 12.1394C33.1323 11.3826 32.4726 10.7348 31.7066 10.2331C30.5666 9.48418 29.1384 9.2166 26.9518 9.1216C25.9084 9.1216 25.0107 8.34576 24.8064 7.34035C24.6503 6.60389 24.2448 5.9439 23.6583 5.47194C23.0718 4.99997 22.3403 4.74496 21.5875 4.75001H16.4132C14.8488 4.75001 13.5014 5.8346 13.1942 7.34035C12.99 8.34576 12.0922 9.1216 11.0488 9.1216C8.86383 9.2166 7.43566 9.48576 6.29408 10.2331C5.52859 10.735 4.86951 11.3827 4.35449 12.1394C3.16699 13.8811 3.16699 16.3068 3.16699 21.1597C3.16699 26.0126 3.16699 28.4367 4.35291 30.1799C4.86591 30.9336 5.52458 31.5812 6.29408 32.0863C8.06899 33.25 10.5406 33.25 15.4822 33.25Z" stroke="white" stroke-width="3"/>
    <path d="M30.0833 15.8334H28.5" stroke="white" stroke-width="3" stroke-linecap="round"/>
</svg>
