<svg width="40" height="40" viewBox="0 0 40 40" fill="none" xmlns="http://www.w3.org/2000/svg">
    <path d="M15 23.75L25 13.75M32.5 7.92831V36.25L26.25 33.75L20 36.25L13.75 33.75L7.5 36.25V7.92831C7.5 6.08167 8.84347 4.50023 10.6778 4.28735C13.7359 3.93244 16.8467 3.75 20 3.75C23.1533 3.75 26.2641 3.93244 29.3222 4.28735C31.1565 4.50023 32.5 6.08167 32.5 7.92831ZM16.25 15H16.2625V15.0125H16.25V15ZM16.875 15C16.875 15.3452 16.5952 15.625 16.25 15.625C15.9048 15.625 15.625 15.3452 15.625 15C15.625 14.6548 15.9048 14.375 16.25 14.375C16.5952 14.375 16.875 14.6548 16.875 15ZM23.75 22.5H23.7625V22.5125H23.75V22.5ZM24.375 22.5C24.375 22.8452 24.0952 23.125 23.75 23.125C23.4048 23.125 23.125 22.8452 23.125 22.5C23.125 22.1548 23.4048 21.875 23.75 21.875C24.0952 21.875 24.375 22.1548 24.375 22.5Z" stroke="black" stroke-width="2" stroke-linecap="round" stroke-linejoin="round"/>
</svg>
