<svg width="23" height="23" viewBox="0 0 23 23" fill="none" xmlns="http://www.w3.org/2000/svg">
    <g clip-path="url(#clip0_1_322)">
        <path fill-rule="evenodd" clip-rule="evenodd" d="M1.842 17.9693L7.80086 12.0089C7.87403 11.9359 7.93208 11.8492 7.97169 11.7537C8.0113 11.6583 8.03169 11.5559 8.03169 11.4526C8.03169 11.3492 8.0113 11.2469 7.97169 11.1514C7.93208 11.056 7.87403 10.9693 7.80086 10.8963L1.842 4.93744C1.73221 4.82736 1.59222 4.75233 1.43977 4.72185C1.28732 4.69137 1.12925 4.7068 0.98557 4.76619C0.841891 4.82558 0.71906 4.92626 0.632624 5.05549C0.546188 5.18471 0.500033 5.33668 0.5 5.49215L0.5 17.413C0.500033 17.5685 0.546188 17.7204 0.632624 17.8497C0.71906 17.9789 0.841891 18.0796 0.98557 18.139C1.12925 18.1984 1.28732 18.2138 1.43977 18.1833C1.59222 18.1528 1.73221 18.0778 1.842 17.9677V17.9693ZM21.158 17.9693L15.1976 12.0089C15.1244 11.9359 15.0663 11.8492 15.0267 11.7537C14.9871 11.6583 14.9667 11.5559 14.9667 11.4526C14.9667 11.3492 14.9871 11.2469 15.0267 11.1514C15.0663 11.056 15.1244 10.9693 15.1976 10.8963L21.158 4.93743C21.2678 4.82736 21.4078 4.75233 21.5602 4.72185C21.7127 4.69137 21.8708 4.7068 22.0144 4.76619C22.1581 4.82558 22.2809 4.92626 22.3674 5.05549C22.4538 5.18471 22.5 5.33668 22.5 5.49215V17.413C22.5 17.5685 22.4538 17.7204 22.3674 17.8497C22.2809 17.9789 22.1581 18.0796 22.0144 18.139C21.8708 18.1984 21.7127 18.2138 21.5602 18.1833C21.4078 18.1528 21.2678 18.0778 21.158 17.9677V17.9693ZM12.6786 19.7026V21.274C12.6786 21.5866 12.5544 21.8864 12.3334 22.1074C12.1124 22.3284 11.8126 22.4526 11.5 22.4526C11.1874 22.4526 10.8876 22.3284 10.6666 22.1074C10.4456 21.8864 10.3214 21.5866 10.3214 21.274V19.7026C10.3214 19.39 10.4456 19.0902 10.6666 18.8692C10.8876 18.6482 11.1874 18.524 11.5 18.524C11.8126 18.524 12.1124 18.6482 12.3334 18.8692C12.5544 19.0902 12.6786 19.39 12.6786 19.7026ZM12.6786 15.2507V13.6793C12.6786 13.3667 12.5544 13.0669 12.3334 12.8459C12.1124 12.6249 11.8126 12.5007 11.5 12.5007C11.1874 12.5007 10.8876 12.6249 10.6666 12.8459C10.4456 13.0669 10.3214 13.3667 10.3214 13.6793V15.2507C10.3214 15.5633 10.4456 15.8631 10.6666 16.0841C10.8876 16.3051 11.1874 16.4293 11.5 16.4293C11.8126 16.4293 12.1124 16.3051 12.3334 16.0841C12.5544 15.8631 12.6786 15.5633 12.6786 15.2507ZM12.6786 7.65443L12.6786 9.22586C12.6786 9.53844 12.5544 9.83821 12.3334 10.0592C12.1124 10.2803 11.8126 10.4044 11.5 10.4044C11.1874 10.4044 10.8876 10.2803 10.6666 10.0592C10.4456 9.83821 10.3214 9.53844 10.3214 9.22586L10.3214 7.65443C10.3214 7.34186 10.4456 7.04208 10.6666 6.82106C10.8876 6.60003 11.1874 6.47586 11.5 6.47586C11.8126 6.47586 12.1124 6.60003 12.3334 6.82106C12.5544 7.04208 12.6786 7.34186 12.6786 7.65443ZM12.6786 3.20258V1.63115C12.6786 1.31857 12.5544 1.0188 12.3334 0.797773C12.1124 0.576749 11.8126 0.452577 11.5 0.452577C11.1874 0.452577 10.8876 0.576749 10.6666 0.797773C10.4456 1.0188 10.3214 1.31857 10.3214 1.63115V3.20258C10.3214 3.51515 10.4456 3.81493 10.6666 4.03595C10.8876 4.25698 11.1874 4.38115 11.5 4.38115C11.8126 4.38115 12.1124 4.25698 12.3334 4.03595C12.5544 3.81493 12.6786 3.51515 12.6786 3.20258Z" fill="black"/>
    </g>
    <defs>
        <clipPath id="clip0_1_322">
            <rect width="22" height="22" fill="white" transform="translate(0.5 22.4526) rotate(-90)"/>
        </clipPath>
    </defs>
</svg>
