<svg width="236" height="242" viewBox="0 0 236 242" fill="none" xmlns="http://www.w3.org/2000/svg">
    <path d="M121.03 204.894C121.031 204.894 121.031 204.895 121.032 204.896C125.297 212.86 136.42 213.523 141.824 206.339C141.825 206.338 141.825 206.337 141.826 206.336L157.709 185.407L199.414 216.749C199.414 216.749 199.414 216.749 199.414 216.75C200.333 217.44 201.379 217.943 202.492 218.229C203.605 218.516 204.764 218.58 205.902 218.419C207.04 218.258 208.135 217.874 209.125 217.289C210.114 216.704 210.979 215.931 211.67 215.012C211.67 215.012 211.67 215.012 211.67 215.012L230.793 189.574L229.63 188.7L230.793 189.574C231.484 188.655 231.987 187.609 232.273 186.496C232.56 185.383 232.624 184.224 232.463 183.086C232.301 181.948 231.917 180.853 231.333 179.864C230.748 178.874 229.974 178.009 229.056 177.319L185.314 144.44L200.884 123.926L200.888 123.92C206.32 116.694 202.332 106.244 193.543 104.371L193.537 104.369L76.9202 79.9542L76.9202 79.9542L76.9098 79.9521C66.6908 77.8878 58.3716 88.5796 63.4538 97.8934C63.4546 97.8948 63.4553 97.8962 63.4561 97.8976L121.03 204.894Z" fill="white" stroke="black" stroke-width="3"/>
    <path d="M31.4596 49.9769L31.4595 49.9768C30.7759 49.2706 30.2381 48.4366 29.8768 47.5226C29.5156 46.6085 29.3378 45.6323 29.3539 44.6495C29.3699 43.6668 29.5793 42.6968 29.9702 41.7951C30.361 40.8933 30.9257 40.0773 31.6319 39.3937C32.3381 38.7101 33.1721 38.1724 34.0861 37.8111C35.0002 37.4498 35.9765 37.2721 36.9592 37.2881C37.9419 37.3041 38.9119 37.5136 39.8137 37.9044C40.7154 38.2953 41.5314 38.86 42.215 39.5661C42.215 39.5662 42.215 39.5662 42.215 39.5662L63.8539 61.9201C64.8137 62.9111 65.4808 64.1481 65.7815 65.4946C66.0822 66.841 66.0048 68.2443 65.5578 69.5495C65.1107 70.8547 64.3115 72.0108 63.2485 72.8902C62.1851 73.7698 60.8965 74.3381 59.5319 74.5326C59.5316 74.5326 59.5312 74.5327 59.5308 74.5327L59.3194 73.0477C58.3838 73.1816 57.4297 73.0916 56.5355 72.785C55.6414 72.4785 54.8327 71.9643 54.176 71.2845L31.4596 49.9769ZM31.4596 49.9769L53.0972 72.3267C53.0974 72.3269 53.0976 72.3271 53.0977 72.3272L31.4596 49.9769ZM84.2383 62.445C83.2649 62.5835 82.2737 62.5289 81.3215 62.2841C80.3692 62.0394 79.4745 61.6093 78.6886 61.0186C77.9027 60.4278 77.2409 59.6879 76.7411 58.8412L78.0328 58.0787L76.741 58.8412C76.2412 57.9945 75.9132 57.0576 75.7758 56.0841M84.2383 62.445L75.7758 56.0841M84.2383 62.445C88.3269 61.8648 91.1781 58.0778 90.5981 53.9868L86.2303 23.1796C85.9516 21.2141 84.9036 19.4398 83.3167 18.2471C81.7298 17.0543 79.7342 16.5408 77.7687 16.8194C75.8032 17.0981 74.0289 18.1462 72.8361 19.733C71.6434 21.3199 71.1298 23.3156 71.4085 25.281L75.7758 56.0841M84.2383 62.445C84.238 62.445 84.2377 62.4451 84.2375 62.4451L84.0269 60.9599L75.7758 56.0841M44.3001 98.7994L44.3004 98.7994C44.8609 98.8975 45.4301 98.931 45.9969 98.8998L46.0308 98.9252L46.6442 98.8392C48.4109 98.5915 50.0309 97.7207 51.2122 96.3839C52.3934 95.047 53.058 93.3321 53.0863 91.5483C53.1145 89.7646 52.5044 88.0295 51.3661 86.6559C50.228 85.2828 48.6369 84.3613 46.8796 84.0576C46.8791 84.0575 46.8786 84.0574 46.8781 84.0574L16.2351 78.6907L16.2346 78.6906C14.2794 78.3489 12.2685 78.7978 10.6443 79.9388C9.02008 81.0797 7.91565 82.8191 7.57393 84.7743C7.23221 86.7295 7.6812 88.7404 8.82212 90.3646C9.96297 91.9887 11.7022 93.0931 13.6573 93.4349C13.6574 93.4349 13.6575 93.435 13.6577 93.435L44.3001 98.7994ZM22.5511 139.747L22.5521 139.747C23.3308 139.637 24.0874 139.406 24.7939 139.06L24.7943 139.06L52.7411 125.385C54.5237 124.513 55.8868 122.968 56.5305 121.091C57.1743 119.214 57.0459 117.158 56.1736 115.375C55.3014 113.592 53.7567 112.229 51.8794 111.586L51.3929 113.004L51.8794 111.586C50.0021 110.942 47.946 111.07 46.1634 111.942L18.2195 125.613L18.218 125.614C16.6198 126.398 15.3534 127.726 14.6461 129.36C13.9389 130.994 13.837 132.826 14.3588 134.528C14.8807 136.23 15.992 137.69 17.4934 138.647L18.2994 137.382L17.4934 138.647C18.9949 139.603 20.788 139.993 22.5511 139.747Z" fill="white" stroke="black" stroke-width="3"/>
</svg>
