<svg width="100" height="100" viewBox="0 0 100 100" fill="none" xmlns="http://www.w3.org/2000/svg">
    <rect width="100" height="100" rx="50" fill="#E9E9E9"/>
    <path fill-rule="evenodd" clip-rule="evenodd" d="M46.1266 32.1044C44.4837 32.1044 42.9722 33.0386 42.2369 34.5074L41.665 35.6565H37.4326C34.511 35.6565 32.1044 38.0631 32.1044 40.9848V58.7457C32.1044 61.6673 34.511 64.0739 37.4326 64.0739H62.2979C65.2195 64.0739 67.6261 61.6673 67.6261 58.7457V40.9848C67.6261 38.0631 65.2195 35.6565 62.2979 35.6565H58.0654L57.4935 34.5074C57.1313 33.7859 56.5759 33.1792 55.8891 32.7549C55.2023 32.3306 54.4112 32.1054 53.6039 32.1044H46.1266ZM46.1266 35.6565H53.6039C53.9094 35.6565 54.1793 35.8253 54.3143 36.097L55.38 38.2283C55.5278 38.5232 55.7548 38.7711 56.0355 38.9443C56.3163 39.1175 56.6397 39.209 56.9696 39.2087H62.2979C63.2996 39.2087 64.0739 39.9831 64.0739 40.9848V58.7457C64.0739 59.7474 63.2996 60.5218 62.2979 60.5218H37.4326C36.4309 60.5218 35.6565 59.7474 35.6565 58.7457V40.9848C35.6565 39.9831 36.4309 39.2087 37.4326 39.2087H42.7609C43.0909 39.2089 43.4145 39.117 43.6953 38.9436C43.9761 38.7701 44.2029 38.5218 44.3505 38.2265L45.4161 36.0952C45.4816 35.9629 45.5829 35.8517 45.7085 35.7741C45.8341 35.6966 45.979 35.6558 46.1266 35.6565ZM26.7761 25C26.305 25 25.8533 25.1871 25.5202 25.5202C25.1871 25.8533 25 26.305 25 26.7761V33.8804C25 34.3515 25.1871 34.8032 25.5202 35.1363C25.8533 35.4694 26.305 35.6565 26.7761 35.6565C27.2471 35.6565 27.6989 35.4694 28.032 35.1363C28.3651 34.8032 28.5522 34.3515 28.5522 33.8804V28.5522H33.8804C34.3515 28.5522 34.8032 28.3651 35.1363 28.032C35.4694 27.6989 35.6565 27.2471 35.6565 26.7761C35.6565 26.305 35.4694 25.8533 35.1363 25.5202C34.8032 25.1871 34.3515 25 33.8804 25H26.7761ZM26.7761 64.0739C26.305 64.0739 25.8533 64.2611 25.5202 64.5941C25.1871 64.9272 25 65.379 25 65.85V72.9544C25 73.4254 25.1871 73.8772 25.5202 74.2103C25.8533 74.5433 26.305 74.7305 26.7761 74.7305H33.8804C34.3515 74.7305 34.8032 74.5433 35.1363 74.2103C35.4694 73.8772 35.6565 73.4254 35.6565 72.9544C35.6565 72.4833 35.4694 72.0316 35.1363 71.6985C34.8032 71.3654 34.3515 71.1783 33.8804 71.1783H28.5522V65.85C28.5522 65.379 28.3651 64.9272 28.032 64.5941C27.6989 64.2611 27.2471 64.0739 26.7761 64.0739ZM65.85 25C65.379 25 64.9272 25.1871 64.5941 25.5202C64.2611 25.8533 64.0739 26.305 64.0739 26.7761C64.0739 27.0093 64.1199 27.2403 64.2091 27.4558C64.2984 27.6713 64.4292 27.867 64.5941 28.032C64.9272 28.3651 65.379 28.5522 65.85 28.5522H71.1783V33.8804C71.1783 34.3515 71.3654 34.8032 71.6985 35.1363C72.0316 35.4694 72.4833 35.6565 72.9544 35.6565C73.4254 35.6565 73.8772 35.4694 74.2103 35.1363C74.5433 34.8032 74.7305 34.3515 74.7305 33.8804V26.7761C74.7305 26.305 74.5433 25.8533 74.2103 25.5202C73.8772 25.1871 73.4254 25 72.9544 25H65.85ZM72.9544 64.0739C72.4833 64.0739 72.0316 64.2611 71.6985 64.5941C71.3654 64.9272 71.1783 65.379 71.1783 65.85V71.1783H65.85C65.379 71.1783 64.9272 71.3654 64.5941 71.6985C64.2611 72.0316 64.0739 72.4833 64.0739 72.9544C64.0739 73.4254 64.2611 73.8772 64.5941 74.2103C64.9272 74.5433 65.379 74.7305 65.85 74.7305H72.9544C73.4254 74.7305 73.8772 74.5433 74.2103 74.2103C74.5433 73.8772 74.7305 73.4254 74.7305 72.9544V65.85C74.7305 65.379 74.5433 64.9272 74.2103 64.5941C73.8772 64.2611 73.4254 64.0739 72.9544 64.0739Z" fill="black"/>
    <path fill-rule="evenodd" clip-rule="evenodd" d="M49.8661 42.7617C45.964 42.7617 42.7617 45.964 42.7617 49.8661C42.7617 53.7681 45.964 56.9704 49.8661 56.9704C53.7681 56.9704 56.9704 53.7681 56.9704 49.8661C56.9704 45.964 53.7681 42.7617 49.8661 42.7617ZM49.8661 46.3139C51.8482 46.3139 53.4182 47.8822 53.4182 49.8661C53.4182 51.85 51.8482 53.4183 49.8661 53.4183C47.884 53.4183 46.3139 51.8482 46.3139 49.8661C46.3139 47.884 47.884 46.3139 49.8661 46.3139Z" fill="black"/>
</svg>
