<svg width="100" height="100" viewBox="0 0 100 100" fill="none" xmlns="http://www.w3.org/2000/svg">
    <rect width="100" height="100" rx="50" fill="#E9E9E9"/>
    <path d="M54.4185 67.8772C54.0548 67.9679 53.6883 68.0473 53.3197 68.1153C52.3608 68.2936 51.7269 69.2159 51.9042 70.1756C51.988 70.6295 52.2464 71.0324 52.624 71.2978C52.8164 71.4336 53.034 71.5296 53.2641 71.5799C53.4941 71.6301 53.7319 71.6338 53.9634 71.5906C54.4026 71.5091 54.8391 71.4144 55.2725 71.3064C56.2194 71.0707 56.7962 70.1114 56.56 69.165C56.3244 68.2178 55.3659 67.6414 54.4185 67.8772ZM67.4861 44.1917C67.6046 44.5507 67.8355 44.8621 68.1447 45.0797C68.5873 45.3915 69.1664 45.4964 69.7191 45.3136C70.6456 45.0059 71.1477 44.0068 70.8411 43.0807C70.7007 42.6568 70.5474 42.2373 70.3814 41.8227C70.019 40.9165 68.9911 40.4753 68.0845 40.8378C67.1788 41.2001 66.7374 42.2282 67.1002 43.1347C67.2395 43.483 67.3682 43.8355 67.4861 44.1917ZM60.1605 65.3543C59.8474 65.5611 59.5281 65.7584 59.203 65.9459C58.3574 66.4336 58.0678 67.5145 58.5554 68.3597C58.6831 68.5818 58.8578 68.7734 59.0671 68.9212C59.6122 69.3047 60.3526 69.3621 60.9689 69.007C61.3559 68.7839 61.736 68.5491 62.1087 68.3029C62.9226 67.7652 63.1466 66.6688 62.6086 65.8545C62.0707 65.0399 60.9748 64.8161 60.1605 65.3543ZM71.9399 49.1271C71.9014 48.1518 71.0799 47.3927 70.1043 47.4307C69.1299 47.4692 68.3702 48.291 68.4085 49.2659C68.4231 49.6387 68.4269 50.017 68.4183 50.3894C68.4046 51.0011 68.7038 51.5463 69.1687 51.8739C69.4552 52.0759 69.7956 52.1878 70.1461 52.1953C71.1215 52.2169 71.9297 51.4434 71.9514 50.4676C71.9611 50.0226 71.9574 49.5718 71.9399 49.1271ZM67.1977 60.7056C66.4156 60.1189 65.3091 60.2782 64.7234 61.0588C64.4982 61.3588 64.264 61.6518 64.0209 61.9374C63.3888 62.6801 63.4781 63.7956 64.2208 64.4283C64.2631 64.4642 64.3059 64.4971 64.3503 64.5281C65.0887 65.0487 66.1148 64.9291 66.7118 64.2285C67.002 63.8875 67.2816 63.5376 67.5503 63.1795C68.1362 62.3988 67.9776 61.2916 67.1977 60.7056ZM69.7952 54.3178C68.864 54.0259 67.8723 54.5442 67.5806 55.4754C67.4682 55.8335 67.3451 56.1881 67.2115 56.5387C66.9181 57.3094 67.1992 58.1573 67.8436 58.6117C67.9644 58.6968 68.0954 58.7663 68.2335 58.8187C69.1452 59.1666 70.1662 58.7092 70.5137 57.797C70.6724 57.38 70.8188 56.9583 70.9527 56.5326C71.2442 55.6012 70.7262 54.6098 69.7952 54.3178ZM46.7089 68.1312C45.1417 67.8509 43.6179 67.3666 42.1764 66.6908C42.1594 66.6819 42.1442 66.6718 42.1263 66.6637C41.7866 66.504 41.4517 66.3344 41.1219 66.1552C41.1207 66.1538 41.1187 66.153 41.1169 66.1522C40.5111 65.8185 39.9242 65.4517 39.3588 65.0535C31.0463 59.198 29.0477 47.6713 34.9036 39.3589C36.1769 37.5521 37.7179 36.0447 39.4358 34.85C39.457 34.8352 39.4781 34.8206 39.4991 34.8058C45.5528 30.6346 53.7728 30.3535 60.2008 34.6397L58.8202 36.6345C58.4364 37.1897 58.6725 37.5943 59.3444 37.5339L65.3414 36.997C66.0142 36.9365 66.4165 36.3545 66.2356 35.7048L64.6252 29.9026C64.4449 29.2521 63.9833 29.1743 63.5991 29.7294L62.2153 31.7289C57.498 28.5622 51.8401 27.3548 46.2242 28.3286C45.6621 28.4261 45.1039 28.5453 44.5509 28.6857C44.5467 28.6865 44.5433 28.687 44.5399 28.6877C44.5186 28.6929 44.4971 28.6998 44.4764 28.7056C39.6337 29.9492 35.4086 32.7736 32.3937 36.8034C32.3683 36.8335 32.3422 36.863 32.3182 36.8958C32.2174 37.0317 32.1184 37.1688 32.021 37.3071C31.861 37.5343 31.7055 37.7645 31.5544 37.9976C31.5356 38.0256 31.5212 38.054 31.5048 38.0823C29.0169 41.9376 27.8168 46.3947 28.0226 50.9323C28.0231 50.9472 28.0223 50.9622 28.0226 50.9775C28.0431 51.4235 28.0773 51.8687 28.1254 52.3126C28.128 52.3411 28.1343 52.3681 28.1391 52.3967C28.1883 52.844 28.2512 53.2898 28.3279 53.7332C29.1164 58.2818 31.262 62.3748 34.4772 65.5596C34.4847 65.567 34.4925 65.5752 34.5 65.5829C34.5027 65.5859 34.5056 65.5874 34.5081 65.5901C35.3802 66.4504 36.3218 67.2373 37.3233 67.9427C39.9709 69.8083 42.9191 71.0415 46.0852 71.6097C47.0459 71.7823 47.9636 71.1428 48.136 70.1826C48.3082 69.2217 47.6693 68.3033 46.7089 68.1312Z" fill="black"/>
    <path d="M48.8912 35.7031C48.101 35.7031 47.4609 36.3438 47.4609 37.1329V51.3769L60.4883 58.1113C60.6907 58.2163 60.9153 58.2711 61.1434 58.271C61.6608 58.271 62.1605 57.9892 62.4146 57.4976C62.777 56.7959 62.5028 55.9339 61.8011 55.5715L50.3199 49.6359V37.1329C50.3198 36.3438 49.6805 35.7031 48.8912 35.7031Z" fill="black"/>
</svg>
